<svg xmlns="http://www.w3.org/2000/svg" viewBox="0 0 640 480">
  <path fill="#00247d" d="M0 0h640v480H0z"/>
  <path fill="#fff" d="M0 0v27.95L307.037 240 0 452.05V480h38.4l320-212.05L678.4 480H640v-27.95L332.963 240 640 27.95V0h-38.4L281.6 212.05-38.4 0H0z"/>
  <path fill="#cf142b" d="M0 0v11.55L323.2 240 0 468.45V480h16.77L320 251.55 623.23 480H640v-11.55L316.8 240 640 11.55V0h-16.77L320 228.45 16.77 0H0z"/>
  <clipPath id="a"><path d="M0 0h320v240H0z"/></clipPath>
  <path fill="#cf142b" d="M280 0v80h40V0z" clip-path="url(#a)"/>
  <path fill="#fff" d="M320 0v240H0V0h320z"/>
  <path fill="#cf142b" d="M0 0v26.95L121.6 102.05 0 177.15V208h21.33l128-74.85 128 74.85H320v-26.95L198.4 106.15l121.6-75.1V0h-21.33l-128 74.85L42.67 0H0z"/>
</svg>